<?xml version="1.0" encoding="UTF-8" standalone="no"?>
<!-- Created with Inkscape (http://www.inkscape.org/) -->

<svg
   xmlns:dc="http://purl.org/dc/elements/1.1/"
   xmlns:cc="http://creativecommons.org/ns#"
   xmlns:rdf="http://www.w3.org/1999/02/22-rdf-syntax-ns#"
   xmlns:svg="http://www.w3.org/2000/svg"
   xmlns="http://www.w3.org/2000/svg"
   xmlns:sodipodi="http://sodipodi.sourceforge.net/DTD/sodipodi-0.dtd"
   xmlns:inkscape="http://www.inkscape.org/namespaces/inkscape"
   width="50mm"
   height="40mm"
   viewBox="0 0 49.999999 40.000001"
   version="1.1"
   id="svg8"
   inkscape:version="0.92.3 (2405546, 2018-03-11)"
   sodipodi:docname="postile_logo.svg">
  <defs
     id="defs2">
    <clipPath
       clipPathUnits="userSpaceOnUse"
       id="clipPath1346">
      <rect
         style="opacity:1;fill:#6fa827;fill-opacity:1;stroke:none;stroke-width:1.60000002;stroke-linecap:round;stroke-linejoin:bevel;stroke-miterlimit:4;stroke-dasharray:none;stroke-dashoffset:0;stroke-opacity:0.46715327;paint-order:stroke fill markers"
         id="rect1348"
         width="32.198395"
         height="32.198395"
         x="24.561596"
         y="216.29762" />
    </clipPath>
    <clipPath
       clipPathUnits="userSpaceOnUse"
       id="clipPath1346-8">
      <rect
         style="opacity:1;fill:#6fa827;fill-opacity:1;stroke:none;stroke-width:1.60000002;stroke-linecap:round;stroke-linejoin:bevel;stroke-miterlimit:4;stroke-dasharray:none;stroke-dashoffset:0;stroke-opacity:0.46715327;paint-order:stroke fill markers"
         id="rect1348-7"
         width="32.198395"
         height="32.198395"
         x="24.561596"
         y="216.29762" />
    </clipPath>
    <clipPath
       clipPathUnits="userSpaceOnUse"
       id="clipPath1346-8-5">
      <rect
         style="opacity:1;fill:#6fa827;fill-opacity:1;stroke:none;stroke-width:1.60000002;stroke-linecap:round;stroke-linejoin:bevel;stroke-miterlimit:4;stroke-dasharray:none;stroke-dashoffset:0;stroke-opacity:0.46715327;paint-order:stroke fill markers"
         id="rect1348-7-2"
         width="32.198395"
         height="32.198395"
         x="24.561596"
         y="216.29762" />
    </clipPath>
    <clipPath
       clipPathUnits="userSpaceOnUse"
       id="clipPath1346-8-5-3">
      <rect
         style="opacity:1;fill:#6fa827;fill-opacity:1;stroke:none;stroke-width:1.60000002;stroke-linecap:round;stroke-linejoin:bevel;stroke-miterlimit:4;stroke-dasharray:none;stroke-dashoffset:0;stroke-opacity:0.46715327;paint-order:stroke fill markers"
         id="rect1348-7-2-5"
         width="32.198395"
         height="32.198395"
         x="24.561596"
         y="216.29762" />
    </clipPath>
    <clipPath
       clipPathUnits="userSpaceOnUse"
       id="clipPath1346-8-2">
      <rect
         style="opacity:1;fill:#6fa827;fill-opacity:1;stroke:none;stroke-width:1.60000002;stroke-linecap:round;stroke-linejoin:bevel;stroke-miterlimit:4;stroke-dasharray:none;stroke-dashoffset:0;stroke-opacity:0.46715327;paint-order:stroke fill markers"
         id="rect1348-7-22"
         width="32.198395"
         height="32.198395"
         x="24.561596"
         y="216.29762" />
    </clipPath>
    <clipPath
       clipPathUnits="userSpaceOnUse"
       id="clipPath1346-8-5-0">
      <rect
         style="opacity:1;fill:#6fa827;fill-opacity:1;stroke:none;stroke-width:1.60000002;stroke-linecap:round;stroke-linejoin:bevel;stroke-miterlimit:4;stroke-dasharray:none;stroke-dashoffset:0;stroke-opacity:0.46715327;paint-order:stroke fill markers"
         id="rect1348-7-2-55"
         width="32.198395"
         height="32.198395"
         x="24.561596"
         y="216.29762" />
    </clipPath>
    <clipPath
       clipPathUnits="userSpaceOnUse"
       id="clipPath1346-8-5-3-2">
      <rect
         style="opacity:1;fill:#6fa827;fill-opacity:1;stroke:none;stroke-width:1.60000002;stroke-linecap:round;stroke-linejoin:bevel;stroke-miterlimit:4;stroke-dasharray:none;stroke-dashoffset:0;stroke-opacity:0.46715327;paint-order:stroke fill markers"
         id="rect1348-7-2-5-9"
         width="32.198395"
         height="32.198395"
         x="24.561596"
         y="216.29762" />
    </clipPath>
  </defs>
  <sodipodi:namedview
     id="base"
     pagecolor="#ffffff"
     bordercolor="#666666"
     borderopacity="1.0"
     inkscape:pageopacity="0.0"
     inkscape:pageshadow="2"
     inkscape:zoom="3.631801"
     inkscape:cx="137.13379"
     inkscape:cy="79.707043"
     inkscape:document-units="mm"
     inkscape:current-layer="layer1"
     showgrid="false"
     inkscape:window-width="1920"
     inkscape:window-height="1171"
     inkscape:window-x="1920"
     inkscape:window-y="0"
     inkscape:window-maximized="1"
     inkscape:showpageshadow="false"
     showborder="true"
     inkscape:snap-global="true"
     units="mm" />
  <metadata
     id="metadata5">
    <rdf:RDF>
      <cc:Work
         rdf:about="">
        <dc:format>image/svg+xml</dc:format>
        <dc:type
           rdf:resource="http://purl.org/dc/dcmitype/StillImage" />
        <dc:title />
      </cc:Work>
    </rdf:RDF>
  </metadata>
  <g
     inkscape:label="Calque 1"
     inkscape:groupmode="layer"
     id="layer1"
     transform="translate(0,-256.99998)">
    <rect
       style="opacity:1;fill:#6fa827;fill-opacity:1;stroke:none;stroke-width:1.60000002;stroke-linecap:round;stroke-linejoin:bevel;stroke-miterlimit:4;stroke-dasharray:none;stroke-dashoffset:0;stroke-opacity:0.46715327;paint-order:stroke fill markers"
       id="rect957-64-4-9"
       width="9.0815992"
       height="9.0815992"
       x="1.3803706"
       y="267.66757" />
    <rect
       style="opacity:1;fill:#5f8f21;fill-opacity:1;stroke:none;stroke-width:1.60000002;stroke-linecap:round;stroke-linejoin:bevel;stroke-miterlimit:4;stroke-dasharray:none;stroke-dashoffset:0;stroke-opacity:0.46715327;paint-order:stroke fill markers"
       id="rect957-3-5-2-1"
       width="9.0815992"
       height="9.0815992"
       x="10.991125"
       y="267.66757" />
    <rect
       style="opacity:1;fill:#4c731b;fill-opacity:1;stroke:none;stroke-width:1.60000002;stroke-linecap:round;stroke-linejoin:bevel;stroke-miterlimit:4;stroke-dasharray:none;stroke-dashoffset:0;stroke-opacity:0.46715327;paint-order:stroke fill markers"
       id="rect957-9-5-5-1"
       width="9.0815992"
       height="9.0815992"
       x="20.601904"
       y="267.66757" />
    <path
       style="opacity:1;fill:#6fa827;fill-opacity:1;stroke:none;stroke-width:1.60000002;stroke-linecap:round;stroke-linejoin:bevel;stroke-miterlimit:4;stroke-dasharray:none;stroke-dashoffset:0;stroke-opacity:0.46715327;paint-order:stroke fill markers"
       d="m 10.991125,277.27835 h 9.081599 v 9.0816 h -9.081599 z"
       id="rect957-31-5-2-9" />
    <path
       style="opacity:1;fill:#5f8f21;fill-opacity:1;stroke:none;stroke-width:1.60000002;stroke-linecap:round;stroke-linejoin:bevel;stroke-miterlimit:4;stroke-dasharray:none;stroke-dashoffset:0;stroke-opacity:0.46715327;paint-order:stroke fill markers"
       d="m 20.601904,277.27835 h 9.081599 v 9.0816 h -9.081599 z"
       id="rect957-5-6-4-0" />
    <path
       style="opacity:1;fill:#5f8f21;fill-opacity:1;stroke:none;stroke-width:1.60000002;stroke-linecap:round;stroke-linejoin:bevel;stroke-miterlimit:4;stroke-dasharray:none;stroke-dashoffset:0;stroke-opacity:0.46715327;paint-order:stroke fill markers"
       d="m 20.601831,258.0569 v 0.63407 l 0.675928,0.0486 0.152445,-0.15813 0.274919,-0.48679 -0.04186,-0.0377 z m 2.252059,0 0.264067,0.13023 0.454752,0.9064 1.283126,0.55242 0.822689,0.33228 0.290938,0.17932 0.494027,-0.0429 0.449069,-0.10749 h 0.490408 l 1.040765,0.51573 -0.03979,0.0811 0.670762,-0.74517 0.608748,-0.18397 v -1.61799 z m -0.921907,0.17364 -0.288872,0.51108 -0.259932,0.26975 -0.779281,-0.0548 -0.0021,0.003 v 7.78661 l 0.625285,0.22841 0.945162,-1.45108 0.957048,-3.43958 1.227832,-2.03708 -1.19631,-0.51573 -0.463021,-0.92191 z m 7.751464,1.72082 -0.461987,0.14004 -0.592211,0.65888 0.502293,0.49351 0.551905,0.49764 z m -4.79919,0.31574 -1.231449,2.04277 -0.959115,3.44734 -0.898653,1.38131 h 6.860564 l 0.104902,-0.0858 -0.324527,-0.35967 -0.50953,-1.12345 -0.378788,-0.77514 -0.05478,-0.72657 -0.147796,-1.35083 -0.686263,0.20412 -0.580326,0.76998 -0.0124,-0.009 0.0615,0.0558 -0.816488,0.90072 -0.195336,-0.17776 0.805635,-0.88884 -0.05374,-0.0408 0.633036,-0.8382 0.728636,-0.21652 0.632521,-0.44338 0.317293,-1.01131 -0.908989,-0.44959 H 26.97922 l -0.423746,0.10336 -0.722953,0.0605 -0.410311,-0.25167 z m 3.488677,1.0232 -0.286287,0.90847 -0.493512,0.3452 0.163298,1.50068 0.05064,0.67955 0.359667,0.73225 0.491961,1.08986 0.441314,0.48834 -0.106452,0.0966 0.0062,0.007 h 0.683678 v -4.59094 l -0.165365,-0.1943 -0.773596,-0.69763 z"
       id="rect957-6-0-4-8"
       inkscape:connector-curvature="0" />
    <path
       style="opacity:1;fill:#6fa827;fill-opacity:1;stroke:none;stroke-width:1.60000002;stroke-linecap:round;stroke-linejoin:bevel;stroke-miterlimit:4;stroke-dasharray:none;stroke-dashoffset:0;stroke-opacity:0.46715327;paint-order:stroke fill markers"
       d="m 30.212675,277.27835 h 9.081599 v 9.0816 h -9.081599 z"
       id="rect957-315-6-3-9" />
    <g
       aria-label="P"
       style="font-style:normal;font-weight:normal;font-size:8.87483311px;line-height:0;font-family:sans-serif;letter-spacing:0px;word-spacing:0px;fill:#ffffff;fill-opacity:1;stroke:none;stroke-width:0.26458332"
       id="text859-9-3-7-2-8-8">
      <path
         d="m 3.8267033,275.48764 h 1.2158561 v -2.49384 h 0.3904939 c 0.9318605,0 1.3578538,-0.071 1.7217232,-0.29287 0.5324917,-0.32837 0.8608615,-0.99398 0.8608615,-1.74834 0,-0.75437 -0.319495,-1.37561 -0.8874861,-1.72173 -0.3727442,-0.22187 -0.8076124,-0.30174 -1.6773489,-0.30174 H 3.8267033 Z m 1.2158561,-3.65644 v -1.73948 H 5.450803 c 0.3993688,0 0.576866,0.0177 0.772113,0.0621 0.3549944,0.0976 0.5679911,0.40824 0.5679911,0.81649 0,0.31949 -0.1419978,0.56799 -0.3993687,0.70998 -0.1863721,0.0976 -0.5236169,0.15088 -0.9939846,0.15088 z"
         style="font-style:normal;font-variant:normal;font-weight:600;font-stretch:normal;font-size:8.87486172px;font-family:'URW Gothic L';-inkscape-font-specification:'URW Gothic L Semi-Bold';font-variant-ligatures:normal;font-variant-caps:normal;font-variant-numeric:normal;font-feature-settings:normal;text-align:start;writing-mode:lr-tb;text-anchor:start;fill:#ffffff;fill-opacity:1;stroke-width:0.26458332"
         id="path891" />
    </g>
    <g
       aria-label="O"
       style="font-style:normal;font-weight:normal;font-size:8.87483311px;line-height:0;font-family:sans-serif;letter-spacing:0px;word-spacing:0px;fill:#ffffff;fill-opacity:1;stroke:none;stroke-width:0.26458332"
       id="text859-9-3-7-2-0-0-0">
      <path
         d="m 15.576302,268.81374 c -1.95247,0 -3.461196,1.48211 -3.461196,3.39908 0,1.89034 1.526476,3.39019 3.452321,3.39019 1.908095,0 3.381322,-1.4821 3.381322,-3.39907 0,-1.87259 -1.499851,-3.3902 -3.372447,-3.3902 z m -0.01775,1.17149 c 1.215856,0 2.165466,0.97623 2.165466,2.23646 0,1.26023 -0.922985,2.20984 -2.165466,2.20984 -1.242481,0 -2.218715,-0.97623 -2.218715,-2.21871 0,-1.26911 0.958485,-2.22759 2.218715,-2.22759 z"
         style="font-style:normal;font-variant:normal;font-weight:600;font-stretch:normal;font-size:8.87486172px;font-family:'URW Gothic L';-inkscape-font-specification:'URW Gothic L Semi-Bold';font-variant-ligatures:normal;font-variant-caps:normal;font-variant-numeric:normal;font-feature-settings:normal;text-align:start;writing-mode:lr-tb;text-anchor:start;fill:#ffffff;fill-opacity:1;stroke-width:0.26458332"
         id="path888" />
    </g>
    <g
       aria-label="S"
       style="font-style:normal;font-weight:normal;font-size:8.87483311px;line-height:0;font-family:sans-serif;letter-spacing:0px;word-spacing:0px;fill:#ffffff;fill-opacity:1;stroke:none;stroke-width:0.26458332"
       id="text859-9-3-7-2-08-9-7">
      <path
         d="m 23.017175,273.61504 c 0.04437,0.51475 0.159748,0.84312 0.425994,1.18924 0.390494,0.50586 1.038358,0.79873 1.730598,0.79873 1.180356,0 2.094467,-0.91411 2.094467,-2.10334 0,-0.54137 -0.204122,-1.01173 -0.585741,-1.36673 -0.257371,-0.23962 -0.470368,-0.35499 -1.109358,-0.59461 -0.62124,-0.23075 -0.63899,-0.23962 -0.727738,-0.29287 -0.239622,-0.15088 -0.36387,-0.355 -0.36387,-0.59462 0,-0.39049 0.275121,-0.66561 0.67449,-0.66561 0.408244,0 0.65674,0.24849 0.692239,0.69224 h 1.26023 c -0.02662,-0.497 -0.141997,-0.83424 -0.408243,-1.16261 -0.354995,-0.44374 -0.922986,-0.70112 -1.535351,-0.70112 -1.056109,0 -1.908095,0.82537 -1.908095,1.86373 0,0.82536 0.488117,1.45547 1.366728,1.78384 0.878612,0.32837 0.931861,0.355 1.135983,0.50587 0.195246,0.15975 0.301745,0.39049 0.301745,0.66561 0,0.47037 -0.36387,0.79874 -0.887486,0.79874 -0.541367,0 -0.834237,-0.26624 -0.887487,-0.81649 z"
         style="font-style:normal;font-variant:normal;font-weight:600;font-stretch:normal;font-size:8.87486172px;font-family:'URW Gothic L';-inkscape-font-specification:'URW Gothic L Semi-Bold';font-variant-ligatures:normal;font-variant-caps:normal;font-variant-numeric:normal;font-feature-settings:normal;text-align:start;writing-mode:lr-tb;text-anchor:start;fill:#ffffff;fill-opacity:1;stroke-width:0.26458332"
         id="path885" />
    </g>
    <g
       aria-label="T"
       style="font-style:normal;font-weight:normal;font-size:8.87483311px;line-height:0;font-family:sans-serif;letter-spacing:0px;word-spacing:0px;fill:#ffffff;fill-opacity:1;stroke:none;stroke-width:0.26458332"
       id="text859-9-3-7-2-06-2-6">
      <path
         d="m 14.923997,285.09842 h 1.215856 v -5.39592 h 1.215856 v -1.1626 h -3.647568 v 1.1626 h 1.215856 z"
         style="font-style:normal;font-variant:normal;font-weight:600;font-stretch:normal;font-size:8.87486172px;font-family:'URW Gothic L';-inkscape-font-specification:'URW Gothic L Semi-Bold';font-variant-ligatures:normal;font-variant-caps:normal;font-variant-numeric:normal;font-feature-settings:normal;text-align:start;writing-mode:lr-tb;text-anchor:start;fill:#ffffff;fill-opacity:1;stroke-width:0.26458332"
         id="path882" />
    </g>
    <g
       aria-label="I"
       style="font-style:normal;font-weight:normal;font-size:8.87483311px;line-height:0;font-family:sans-serif;letter-spacing:0px;word-spacing:0px;fill:#ffffff;fill-opacity:1;stroke:none;stroke-width:0.26458332"
       id="text859-9-3-7-2-3-1-2">
      <path
         d="m 24.534778,285.09842 h 1.215856 v -6.55852 h -1.215856 z"
         style="font-style:normal;font-variant:normal;font-weight:600;font-stretch:normal;font-size:8.87486172px;font-family:'URW Gothic L';-inkscape-font-specification:'URW Gothic L Semi-Bold';font-variant-ligatures:normal;font-variant-caps:normal;font-variant-numeric:normal;font-feature-settings:normal;text-align:start;writing-mode:lr-tb;text-anchor:start;fill:#ffffff;fill-opacity:1;stroke-width:0.26458332"
         id="path879" />
    </g>
    <g
       aria-label="L"
       style="font-style:normal;font-weight:normal;font-size:8.87483311px;line-height:0;font-family:sans-serif;letter-spacing:0px;word-spacing:0px;fill:#ffffff;fill-opacity:1;stroke:none;stroke-width:0.26458332"
       id="text859-9-3-7-2-4-3-7">
      <path
         d="m 33.142687,285.09842 h 3.221574 v -1.16261 h -2.005718 v -5.39591 h -1.215856 z"
         style="font-style:normal;font-variant:normal;font-weight:600;font-stretch:normal;font-size:8.87486172px;font-family:'URW Gothic L';-inkscape-font-specification:'URW Gothic L Semi-Bold';font-variant-ligatures:normal;font-variant-caps:normal;font-variant-numeric:normal;font-feature-settings:normal;text-align:start;writing-mode:lr-tb;text-anchor:start;fill:#ffffff;fill-opacity:1;stroke-width:0.26458332"
         id="path876" />
    </g>
    <path
       style="opacity:1;fill:#91d23e;fill-opacity:1;stroke:none;stroke-width:1.60000002;stroke-linecap:round;stroke-linejoin:bevel;stroke-miterlimit:4;stroke-dasharray:none;stroke-dashoffset:0;stroke-opacity:0.46715327;paint-order:stroke fill markers"
       d="m 39.823441,277.27835 h 9.081599 v 9.0816 h -9.081599 z"
       id="rect957-315-6-8-2-9" />
    <g
       aria-label="E"
       style="font-style:normal;font-weight:normal;font-size:8.87483311px;line-height:0;font-family:sans-serif;letter-spacing:0px;word-spacing:0px;fill:#ffffff;fill-opacity:1;stroke:none;stroke-width:0.26458332"
       id="text859-9-3-7-2-46-2-7">
      <path
         d="m 42.602575,285.09842 h 3.52332 v -1.16261 h -2.307464 v -1.52647 h 2.209841 v -1.16261 h -2.209841 v -1.54423 h 2.307464 v -1.1626 h -3.52332 z"
         style="font-style:normal;font-variant:normal;font-weight:600;font-stretch:normal;font-size:8.87486172px;font-family:'URW Gothic L';-inkscape-font-specification:'URW Gothic L Semi-Bold';font-variant-ligatures:normal;font-variant-caps:normal;font-variant-numeric:normal;font-feature-settings:normal;text-align:start;writing-mode:lr-tb;text-anchor:start;fill:#ffffff;fill-opacity:1;stroke-width:0.26458332"
         id="path872" />
    </g>
    <path
       style="opacity:1;fill:#91d23e;fill-opacity:1;stroke:none;stroke-width:1.60000002;stroke-linecap:round;stroke-linejoin:bevel;stroke-miterlimit:4;stroke-dasharray:none;stroke-dashoffset:0;stroke-opacity:0.46715327;paint-order:stroke fill markers"
       d="m 30.212613,286.88925 v 9.08162 h 5.13457 l 0.745176,-1.2361 -1.197343,-0.5147 -0.463021,-0.92139 -0.765844,-0.37827 -0.288356,0.51056 -0.261999,0.26975 -0.777213,-0.0568 -0.42013,0.48834 -0.491961,0.50798 -0.738454,0.22272 -0.324012,0.10542 -0.08217,-0.25218 0.328147,-0.10697 0.675926,-0.20153 0.437184,-0.45476 0.500226,-0.58239 0.789099,0.0568 0.152448,-0.15606 0.273883,-0.48731 -0.51263,-0.46199 -0.960665,-0.97255 -0.314709,-1.15238 -1.1405,-1.63711 -0.05478,-0.72037 -0.07235,-0.95033 z m 0.738458,0 0.06925,0.90899 0.04289,0.56637 1.107424,1.59009 0.300757,1.10174 0.845426,0.85731 0.397394,0.35657 0.02479,-0.0481 0.496094,-1.05472 0.517281,-0.28732 0.519864,-0.2868 0.849561,0.1111 0.898137,-0.39636 0.425812,-0.65836 0.343649,-0.58756 0.228928,0.13436 -0.345715,0.59221 -0.47284,0.73019 -1.039214,0.45734 -0.835607,-0.10956 -0.443384,0.24599 -0.443383,0.24443 -0.463021,0.98236 -0.04238,0.0817 0.919324,0.45527 0.455269,0.90641 1.283126,0.55087 0.822171,0.33383 0.290939,0.17776 0.494027,-0.0413 0.449585,-0.10904 0.488342,0.002 0.158646,0.0786 v -7.88639 z m 5.668388,8.06618 -0.611849,1.01544 h 3.28662 v -0.56534 l -0.291455,-0.14418 h -0.289388 l -0.425815,0.10129 -0.722437,0.0625 -0.408241,-0.25166 z"
       id="rect957-6-0-8-5-2"
       inkscape:connector-curvature="0" />
    <rect
       style="opacity:1;fill:#5c8b20;fill-opacity:1;stroke:none;stroke-width:0.565;stroke-linecap:round;stroke-linejoin:bevel;stroke-miterlimit:4;stroke-dasharray:none;stroke-dashoffset:0;stroke-opacity:1;paint-order:stroke fill markers"
       id="rect1500-5"
       width="1.0405529"
       height="0.8569259"
       x="-94.643219"
       y="277.9834"
       transform="rotate(-25.622771)"
       inkscape:transform-center-x="-0.61208991"
       inkscape:transform-center-y="-0.12241798" />
    <rect
       style="opacity:1;fill:#5c8b20;fill-opacity:1;stroke:none;stroke-width:0.56500006;stroke-linecap:round;stroke-linejoin:bevel;stroke-miterlimit:4;stroke-dasharray:none;stroke-dashoffset:0;stroke-opacity:1;paint-order:stroke fill markers"
       id="rect1500-1-05"
       width="1.0405529"
       height="0.8569259"
       x="-175.07033"
       y="237.30894"
       transform="rotate(-42.362083)"
       inkscape:transform-center-x="-0.55089119"
       inkscape:transform-center-y="-0.29353974" />
    <rect
       style="opacity:1;fill:#5c8b20;fill-opacity:1;stroke:none;stroke-width:0.56500006;stroke-linecap:round;stroke-linejoin:bevel;stroke-miterlimit:4;stroke-dasharray:none;stroke-dashoffset:0;stroke-opacity:1;paint-order:stroke fill markers"
       id="rect1500-1-0-7"
       width="1.4263899"
       height="1.1746742"
       x="87.064919"
       y="282.31931"
       transform="rotate(9.9040037)"
       inkscape:transform-center-x="-0.78038514"
       inkscape:transform-center-y="0.35093326" />
    <rect
       style="opacity:1;fill:#dcf1c2;fill-opacity:1;stroke:none;stroke-width:1.60000002;stroke-linecap:round;stroke-linejoin:bevel;stroke-miterlimit:4;stroke-dasharray:none;stroke-dashoffset:0;stroke-opacity:0.46715327;paint-order:stroke fill markers"
       id="rect957-315-6-8-2-9-3"
       width="9.0815992"
       height="9.0815992"
       x="30.212652"
       y="267.66757" />
    <rect
       style="opacity:1;fill:#dcf1c2;fill-opacity:1;stroke:none;stroke-width:1.60000002;stroke-linecap:round;stroke-linejoin:bevel;stroke-miterlimit:4;stroke-dasharray:none;stroke-dashoffset:0;stroke-opacity:0.46715327;paint-order:stroke fill markers"
       id="rect957-315-6-8-2-9-3-2"
       width="9.0815992"
       height="9.0815992"
       x="39.823441"
       y="267.66757" />
    <rect
       style="opacity:1;fill:#dcf1c2;fill-opacity:1;stroke:none;stroke-width:1.60000002;stroke-linecap:round;stroke-linejoin:bevel;stroke-miterlimit:4;stroke-dasharray:none;stroke-dashoffset:0;stroke-opacity:0.46715327;paint-order:stroke fill markers"
       id="rect957-315-6-8-2-9-3-7"
       width="9.0815992"
       height="9.0815992"
       x="30.212652"
       y="258.05679" />
    <rect
       style="opacity:1;fill:#ebf7db;fill-opacity:1;stroke:none;stroke-width:1.60000002;stroke-linecap:round;stroke-linejoin:bevel;stroke-miterlimit:4;stroke-dasharray:none;stroke-dashoffset:0;stroke-opacity:0.46715327;paint-order:stroke fill markers"
       id="rect957-315-6-8-2-9-3-2-2"
       width="9.0815992"
       height="9.0815992"
       x="39.823425"
       y="258.05679" />
    <rect
       style="opacity:1;fill:#dcf1c2;fill-opacity:1;stroke:none;stroke-width:1.60000002;stroke-linecap:round;stroke-linejoin:bevel;stroke-miterlimit:4;stroke-dasharray:none;stroke-dashoffset:0;stroke-opacity:0.46715327;paint-order:stroke fill markers"
       id="rect957-315-6-8-2-9-3-1"
       width="9.0815992"
       height="9.0815992"
       x="10.991117"
       y="286.88913" />
    <rect
       style="opacity:1;fill:#dcf1c2;fill-opacity:1;stroke:none;stroke-width:1.60000002;stroke-linecap:round;stroke-linejoin:bevel;stroke-miterlimit:4;stroke-dasharray:none;stroke-dashoffset:0;stroke-opacity:0.46715327;paint-order:stroke fill markers"
       id="rect957-315-6-8-2-9-3-2-3"
       width="9.0815992"
       height="9.0815992"
       x="20.601904"
       y="286.88913" />
    <rect
       style="opacity:1;fill:#ebf7db;fill-opacity:1;stroke:none;stroke-width:1.60000002;stroke-linecap:round;stroke-linejoin:bevel;stroke-miterlimit:4;stroke-dasharray:none;stroke-dashoffset:0;stroke-opacity:0.46715327;paint-order:stroke fill markers"
       id="rect957-315-6-8-2-9-3-4"
       width="9.0815992"
       height="9.0815992"
       x="1.3803401"
       y="258.05679" />
    <rect
       style="opacity:1;fill:#dcf1c2;fill-opacity:1;stroke:none;stroke-width:1.60000002;stroke-linecap:round;stroke-linejoin:bevel;stroke-miterlimit:4;stroke-dasharray:none;stroke-dashoffset:0;stroke-opacity:0.46715327;paint-order:stroke fill markers"
       id="rect957-315-6-8-2-9-3-2-9"
       width="9.0815992"
       height="9.0815992"
       x="10.991125"
       y="258.05679" />
    <path
       transform="rotate(90)"
       style="opacity:1;fill:#dcf1c2;fill-opacity:1;stroke:none;stroke-width:1.60000002;stroke-linecap:round;stroke-linejoin:bevel;stroke-miterlimit:4;stroke-dasharray:none;stroke-dashoffset:0;stroke-opacity:0.46715327;paint-order:stroke fill markers"
       d="m 277.27835,-10.461966 h 9.0816 v 9.0815997 h -9.0816 z"
       id="rect957-315-6-8-2-9-3-41" />
    <rect
       style="opacity:1;fill:#ebf7db;fill-opacity:1;stroke:none;stroke-width:1.60000002;stroke-linecap:round;stroke-linejoin:bevel;stroke-miterlimit:4;stroke-dasharray:none;stroke-dashoffset:0;stroke-opacity:0.46715327;paint-order:stroke fill markers"
       id="rect957-315-6-8-2-9-3-2-95"
       width="9.0815992"
       height="9.0815992"
       x="286.88913"
       y="-10.461966"
       transform="rotate(90)" />
    <path
       style="opacity:1;fill:#ebf7db;fill-opacity:1;stroke:none;stroke-width:1.60000002;stroke-linecap:round;stroke-linejoin:bevel;stroke-miterlimit:4;stroke-dasharray:none;stroke-dashoffset:0;stroke-opacity:0.46715327;paint-order:stroke fill markers"
       d="m 39.823439,286.88915 h 9.0816 v 6.06958 c -2.96914,2.96914 -0.12748,0.01 -3.1299,3.01202 h -5.9517 z"
       id="rect957-315-6-8-2-9-3-74"
       inkscape:connector-curvature="0"
       sodipodi:nodetypes="cccccc" />
  </g>
</svg>
